<?xml version="1.0" standalone="no"?>
<!DOCTYPE svg PUBLIC "-//W3C//DTD SVG 20010904//EN"
 "http://www.w3.org/TR/2001/REC-SVG-20010904/DTD/svg10.dtd">
<svg version="1.0" xmlns="http://www.w3.org/2000/svg"
 width="975.000000pt" height="716.000000pt" viewBox="0 0 975.000000 716.000000"
 preserveAspectRatio="xMidYMid meet">

<g transform="translate(0.000000,716.000000) scale(0.100000,-0.100000)"
fill="#000000" stroke="none">
<path d="M4725 4764 c-94 -21 -236 -89 -312 -151 -81 -65 -134 -130 -184 -225
l-40 -78 -110 0 -109 0 0 -130 0 -130 208 0 208 0 10 69 c22 135 104 266 214
340 79 52 151 73 249 72 100 -1 176 -21 289 -78 l94 -46 80 80 80 80 -63 46
c-81 57 -185 109 -274 136 -94 29 -246 36 -340 15z"/>
<path d="M4816 4280 c-85 -26 -156 -118 -156 -204 0 -229 319 -309 436 -110
49 83 32 196 -38 261 -57 53 -163 76 -242 53z"/>
<path d="M5387 4083 c-4 -3 -7 -21 -7 -38 0 -135 -129 -329 -265 -398 -144
-72 -346 -53 -518 49 l-59 34 -56 -49 c-32 -27 -70 -63 -85 -79 l-29 -30 34
-25 c168 -126 331 -187 503 -187 119 0 198 20 324 81 89 43 117 63 186 133 62
62 91 101 125 168 l45 88 98 0 97 0 0 130 0 130 -193 0 c-107 0 -197 -3 -200
-7z"/>
<path d="M5295 3060 c-3 -5 -1 -18 5 -29 6 -12 10 -104 10 -234 0 -258 -5
-247 118 -247 89 0 97 6 62 50 -18 23 -20 42 -20 228 0 121 -4 211 -10 223 -9
16 -22 19 -85 19 -40 0 -77 -4 -80 -10z"/>
<path d="M2355 3010 c-3 -5 -2 -18 3 -27 7 -13 -7 -78 -44 -218 -30 -109 -50
-203 -45 -208 4 -4 34 -7 67 -5 l58 3 14 50 c8 28 19 56 24 63 12 14 165 17
187 3 8 -5 22 -33 31 -63 l16 -53 67 -3 c53 -2 67 0 67 12 0 20 -110 417 -121
439 -9 15 -27 17 -164 17 -90 0 -156 -4 -160 -10z m232 -159 c12 -46 20 -88
17 -93 -9 -15 -134 -10 -140 6 -6 14 21 125 38 159 6 12 18 17 36 15 23 -3 28
-11 49 -87z"/>
<path d="M2905 3010 c-3 -5 -3 -16 2 -22 4 -7 10 -107 13 -223 l5 -210 69 -3
c49 -2 72 1 77 10 14 22 11 432 -3 446 -15 15 -154 16 -163 2z"/>
<path d="M3715 3010 c-4 -6 -2 -17 4 -24 7 -8 12 -92 13 -222 l3 -209 217 -3
218 -2 6 26 c11 42 -7 49 -149 54 l-132 5 -3 51 c-2 34 2 55 11 62 7 7 62 13
128 14 111 3 114 4 117 27 2 13 -1 28 -8 35 -6 6 -61 13 -128 16 -114 5 -117
6 -120 29 -2 12 -1 34 2 47 6 23 9 23 134 26 l127 3 0 35 0 35 -217 3 c-145 1
-219 -1 -223 -8z"/>
<path d="M4285 2890 c-3 -5 18 -42 46 -82 29 -40 52 -78 52 -83 0 -6 -23 -45
-51 -87 -28 -42 -48 -78 -45 -82 4 -3 34 -6 67 -6 58 0 63 2 92 36 l30 37 22
-37 c21 -36 21 -36 92 -36 45 0 70 4 70 11 0 6 -20 40 -45 75 -25 34 -48 70
-51 78 -3 8 16 47 46 90 28 42 48 81 45 86 -7 12 -115 13 -131 2 -6 -4 -19
-22 -28 -39 -9 -18 -19 -33 -21 -33 -3 0 -16 18 -30 40 -25 40 -25 40 -90 40
-35 0 -66 -4 -70 -10z"/>
<path d="M4776 2892 c-2 -4 -1 -14 5 -22 5 -8 9 -119 9 -246 0 -187 3 -234 14
-243 9 -7 40 -11 78 -9 l63 3 5 85 5 85 110 3 c147 3 145 1 145 176 0 188 16
176 -230 176 -109 0 -201 -4 -204 -8z m272 -175 l3 -98 -48 3 -48 3 -3 84 c-4
109 -2 113 50 109 l43 -3 3 -98z"/>
<path d="M5606 2884 c-23 -23 -23 -295 0 -318 13 -13 45 -16 192 -16 97 0 184
5 192 10 12 8 15 36 15 154 0 197 13 186 -211 186 -144 0 -175 -3 -188 -16z
m239 -159 l0 -90 -47 -3 -48 -3 0 96 0 96 48 -3 47 -3 0 -90z"/>
<path d="M6108 2748 c4 -213 -3 -198 87 -198 l75 0 0 52 0 51 111 113 c62 63
108 117 105 123 -4 6 -35 11 -68 11 -59 0 -62 -1 -101 -45 -47 -52 -57 -55
-57 -19 0 53 -15 64 -88 64 l-67 0 3 -152z"/>
<path d="M6598 2889 c-16 -9 -18 -28 -18 -158 0 -131 2 -150 18 -164 16 -15
46 -17 205 -17 l187 0 0 50 c0 37 -4 50 -14 50 -8 0 -18 -4 -21 -10 -3 -6 -52
-10 -111 -10 l-104 0 0 30 0 30 109 0 c60 0 116 3 125 6 13 5 16 23 16 89 0
119 6 115 -203 115 -98 0 -180 -5 -189 -11z m237 -94 c0 -17 -8 -20 -47 -23
-46 -3 -48 -2 -48 23 0 25 2 26 48 23 39 -3 47 -6 47 -23z"/>
<path d="M7099 2893 c-1 -4 0 -12 2 -18 2 -5 6 -80 9 -165 l5 -155 78 -3 77
-3 0 53 0 52 111 112 c61 62 108 118 104 123 -3 6 -35 11 -70 11 -63 0 -64 0
-103 -46 -23 -25 -44 -46 -49 -47 -4 -1 -10 18 -13 43 l-5 45 -72 3 c-40 2
-74 -1 -74 -5z"/>
</g>
</svg>
