<svg data-v-0dd9719b="" version="1.0" xmlns="http://www.w3.org/2000/svg" xmlns:xlink="http://www.w3.org/1999/xlink" width="100%" height="100%" viewBox="0 0 340.000000 250.000000" preserveAspectRatio="xMidYMid meet" color-interpolation-filters="sRGB" style="margin: auto;"> <rect data-v-0dd9719b="" x="0" y="0" width="100%" height="100%" fill="#fff" fill-opacity="0" class="background"></rect> <!----> <g data-v-0dd9719b="" class="iconmbgsvg" transform="translate(81.00499725341797,66.25)"><g fill="#065758" hollow-target="textRect"><g transform="matrix(1,0,0,1,30.24500274658203,0)" mask="url(#dcf4116e-3f22-4305-94e6-73633192f6e9)" opacity="1"><g><rect fill="#065758" fill-opacity="0" stroke-width="2" x="0" y="0" width="117.5" height="117.5" class="image-rect"></rect> <svg x="0" y="0" width="117.5" height="117.5" filtersec="colorsb6416024354" class="image-svg-svg primary" style="overflow: visible;"><svg fill="#065758" xmlns="http://www.w3.org/2000/svg" xmlns:xlink="http://www.w3.org/1999/xlink" version="1.1" x="0px" y="0px" viewBox="-370 248.29998779296875 100 100" style="enable-background:new -370 248.3 100 100;" xml:space="preserve"><rect x="-356.9" y="261.4" class="st0" width="73.8" height="73.8"></rect><path class="st0" d="M-370,248.3v100h100v-100H-370z M-275,343.3h-90v-90h90V343.3z"></path></svg></svg> <!----></g></g> <g transform="translate(0,40.23499870300293)"><g data-gra="path-name" fill-rule="" class="tp-name" opacity="1" transform="matrix(1,0,0,1,0,0)"><g transform="scale(1)"><g><path d="M17.76-3.78L15.49-3.4 15.49 0 24.56 0 24.56-3.4 22.3-3.78 15.12-26.45 6.8-26.45 6.8-23.05 9.07-22.67 3.02-3.78 0.76-3.4 0.76 0 9.83 0 9.83-3.4 7.56-3.78 8.84-7.94 16.44-7.94ZM12.66-20.03L15.15-12.09 10.17-12.09ZM32.88-22.67L35.15-23.05 35.15-26.45 26.08-26.45 26.08-23.05 28.34-22.67 28.34-3.78 26.08-3.4 26.08 0 35.15 0 35.15-3.4 32.88-3.78ZM44.22-23.05L46.48-22.67 46.48-3.78 44.22-3.4 44.22 0 62.73 0 62.73-6.8 59.33-6.8 58.95-4.16 51.02-4.16 51.02-12.09 57.44-12.09 57.82-9.83 61.22-9.83 61.22-17.76 57.82-17.76 57.44-16.25 51.02-16.25 51.02-22.3 58.95-22.3 59.33-20.03 62.73-20.03 62.73-26.45 44.22-26.45ZM75.21-3.78L73.69-3.4 73.69 0 82.01 0 82.01-3.4 80.12-3.78 75.58-9.45 80.12-15.12 82.01-15.49 82.01-18.9 73.69-18.9 73.69-15.49 75.21-15.12 73.13-12.51 71.05-15.12 72.56-15.49 72.56-18.9 64.25-18.9 64.25-15.49 66.14-15.12 70.67-9.45 66.14-3.78 64.25-3.4 64.25 0 72.56 0 72.56-3.4 71.05-3.78 73.13-6.35ZM83.52-15.49L85.79-15.12 85.79 4.91 83.52 5.29 83.52 8.69 92.59 8.69 92.59 5.29 90.32 4.91 90.32 0 92.97 0C97.12 0 100.53-3.02 100.53-7.18L100.53-13.23C100.53-16.25 98.26-18.9 94.86-18.9L83.52-18.9ZM95.99-7.18C95.99-5.44 94.86-4.16 92.97-4.16L90.32-4.16 90.32-14.74 94.48-14.74C95.42-14.74 95.99-14.02 95.99-13.23ZM102.79-24.94L105.06-24.56 105.06-3.78 102.79-3.4 102.79 0 111.86 0 111.86-3.4 109.6-3.78 109.6-28.34 102.79-28.34ZM122.44 0C125.85 0 128.49-2.83 128.49-6.24L128.49-13.42C128.49-16.48 126.26-18.9 123.2-18.9L118.67-18.9C115.6-18.9 113.37-16.48 113.37-13.42L113.37-6.24C113.37-2.83 116.02 0 119.42 0ZM119.8-4.16C118.67-4.16 117.91-4.91 117.91-6.05L117.91-13.42C117.91-14.17 118.48-14.74 119.23-14.74L122.63-14.74C123.39-14.74 123.96-14.17 123.96-13.42L123.96-6.05C123.96-4.91 123.2-4.16 122.07-4.16ZM141.72-14.74L142.1-12.47 145.5-12.47 145.5-18.9 140.58-18.9C139.26-18.9 137.94-18.37 137.18-17.76L136.43-18.9 130.76-18.9 130.76-15.49 133.03-15.12 133.03-3.78 130.76-3.4 130.76 0 139.83 0 139.83-3.4 137.56-3.78 137.56-11.72C137.56-13.6 138.7-14.74 140.58-14.74ZM156.27-14.74C157.02-14.74 157.59-14.25 157.59-13.42 157.59-12.77 157.21-12.28 156.46-12.09L151.92-10.96 151.92-13.42C151.92-14.17 152.49-14.74 153.25-14.74ZM161.37 0L161.37-4.16 154.57-4.16C153.13-4.16 152.07-5.03 151.92-6.61L157.4-7.94C159.78-8.5 162.13-10.2 162.13-13.42 162.13-16.63 159.78-18.9 156.46-18.9L152.68-18.9C149.65-18.9 147.39-16.48 147.39-13.42L147.39-7.18C147.39-3.25 150.64 0 154.57 0ZM174.98-14.74L175.35-12.47 178.75-12.47 178.75-18.9 173.84-18.9C172.52-18.9 171.2-18.37 170.44-17.76L169.68-18.9 164.02-18.9 164.02-15.49 166.28-15.12 166.28-3.78 164.02-3.4 164.02 0 173.09 0 173.09-3.4 170.82-3.78 170.82-11.72C170.82-13.6 171.95-14.74 173.84-14.74Z" transform="translate(-0.7599999904632568, 28.34000015258789)"></path></g> <!----> <!----> <!----> <!----> <!----> <!----> <!----></g></g> <!----></g></g></g><defs v-gra="od"></defs><mask id="dcf4116e-3f22-4305-94e6-73633192f6e9"><g fill="white"><g><rect fill-opacity="1" stroke-width="2" x="0" y="0" width="117.5" height="117.5" class="image-rect"></rect> <svg x="0" y="0" width="117.5" height="117.5" filtersec="colorsb6416024354" class="image-svg-svg primary" style="overflow: visible;"><svg xmlns="http://www.w3.org/2000/svg" xmlns:xlink="http://www.w3.org/1999/xlink" version="1.1" x="0px" y="0px" viewBox="-370 248.29998779296875 100 100" style="enable-background:new -370 248.3 100 100;" xml:space="preserve"><rect x="-356.9" y="261.4" class="st0" width="73.8" height="73.8"></rect><path class="st0" d="M-370,248.3v100h100v-100H-370z M-275,343.3h-90v-90h90V343.3z"></path></svg></svg> </g></g> <g transform="translate(-30.24500274658203,40.23499870300293)"><rect fill="black" fill-opacity="1" x="-3.5" y="-3.5" width="184.99000549316406" height="44.03000259399414"></rect><rect fill="black" fill-opacity="1" x="-3.5" y="-3.5"></rect></g><g transform="translate(-30.24500274658203,40.23499870300293)" fill="black"><g data-gra="path-name" fill-rule="" class="tp-name" opacity="1" transform="matrix(1,0,0,1,0,0)"><g transform="scale(1)"><g><path d="M17.76-3.78L15.49-3.4 15.49 0 24.56 0 24.56-3.4 22.3-3.78 15.12-26.45 6.8-26.45 6.8-23.05 9.07-22.67 3.02-3.78 0.76-3.4 0.76 0 9.83 0 9.83-3.4 7.56-3.78 8.84-7.94 16.44-7.94ZM12.66-20.03L15.15-12.09 10.17-12.09ZM32.88-22.67L35.15-23.05 35.15-26.45 26.08-26.45 26.08-23.05 28.34-22.67 28.34-3.78 26.08-3.4 26.08 0 35.15 0 35.15-3.4 32.88-3.78ZM44.22-23.05L46.48-22.67 46.48-3.78 44.22-3.4 44.22 0 62.73 0 62.73-6.8 59.33-6.8 58.95-4.16 51.02-4.16 51.02-12.09 57.44-12.09 57.82-9.83 61.22-9.83 61.22-17.76 57.82-17.76 57.44-16.25 51.02-16.25 51.02-22.3 58.95-22.3 59.33-20.03 62.73-20.03 62.73-26.45 44.22-26.45ZM75.21-3.78L73.69-3.4 73.69 0 82.01 0 82.01-3.4 80.12-3.78 75.58-9.45 80.12-15.12 82.01-15.49 82.01-18.9 73.69-18.9 73.69-15.49 75.21-15.12 73.13-12.51 71.05-15.12 72.56-15.49 72.56-18.9 64.25-18.9 64.25-15.49 66.14-15.12 70.67-9.45 66.14-3.78 64.25-3.4 64.25 0 72.56 0 72.56-3.4 71.05-3.78 73.13-6.35ZM83.52-15.49L85.79-15.12 85.79 4.91 83.52 5.29 83.52 8.69 92.59 8.69 92.59 5.29 90.32 4.91 90.32 0 92.97 0C97.12 0 100.53-3.02 100.53-7.18L100.53-13.23C100.53-16.25 98.26-18.9 94.86-18.9L83.52-18.9ZM95.99-7.18C95.99-5.44 94.86-4.16 92.97-4.16L90.32-4.16 90.32-14.74 94.48-14.74C95.42-14.74 95.99-14.02 95.99-13.23ZM102.79-24.94L105.06-24.56 105.06-3.78 102.79-3.4 102.79 0 111.86 0 111.86-3.4 109.6-3.78 109.6-28.34 102.79-28.34ZM122.44 0C125.85 0 128.49-2.83 128.49-6.24L128.49-13.42C128.49-16.48 126.26-18.9 123.2-18.9L118.67-18.9C115.6-18.9 113.37-16.48 113.37-13.42L113.37-6.24C113.37-2.83 116.02 0 119.42 0ZM119.8-4.16C118.67-4.16 117.91-4.91 117.91-6.05L117.91-13.42C117.91-14.17 118.48-14.74 119.23-14.74L122.63-14.74C123.39-14.74 123.96-14.17 123.96-13.42L123.96-6.05C123.96-4.91 123.2-4.16 122.07-4.16ZM141.72-14.74L142.1-12.47 145.5-12.47 145.5-18.9 140.58-18.9C139.26-18.9 137.94-18.37 137.18-17.76L136.43-18.9 130.76-18.9 130.76-15.49 133.03-15.12 133.03-3.78 130.76-3.4 130.76 0 139.83 0 139.83-3.4 137.56-3.78 137.56-11.72C137.56-13.6 138.7-14.74 140.58-14.74ZM156.27-14.74C157.02-14.74 157.59-14.25 157.59-13.42 157.59-12.77 157.21-12.28 156.46-12.09L151.92-10.96 151.92-13.42C151.92-14.17 152.49-14.74 153.25-14.74ZM161.37 0L161.37-4.16 154.57-4.16C153.13-4.16 152.07-5.03 151.92-6.61L157.4-7.94C159.78-8.5 162.13-10.2 162.13-13.42 162.13-16.63 159.78-18.9 156.46-18.9L152.68-18.9C149.65-18.9 147.39-16.48 147.39-13.42L147.39-7.18C147.39-3.25 150.64 0 154.57 0ZM174.98-14.74L175.35-12.47 178.75-12.47 178.75-18.9 173.84-18.9C172.52-18.9 171.2-18.37 170.44-17.76L169.68-18.9 164.02-18.9 164.02-15.49 166.28-15.12 166.28-3.78 164.02-3.4 164.02 0 173.09 0 173.09-3.4 170.82-3.78 170.82-11.72C170.82-13.6 171.95-14.74 173.84-14.74Z" transform="translate(-0.7599999904632568, 28.34000015258789)"></path></g>       </g></g> </g></mask></svg>