<?xml version="1.0" encoding="UTF-8"?>
<!DOCTYPE svg PUBLIC "-//W3C//DTD SVG 1.1//EN" "http://www.w3.org/Graphics/SVG/1.1/DTD/svg11.dtd">
<svg xmlns="http://www.w3.org/2000/svg" version="1.1" width="415px" height="416px" style="shape-rendering:geometricPrecision; text-rendering:geometricPrecision; image-rendering:optimizeQuality; fill-rule:evenodd; clip-rule:evenodd" xmlns:xlink="http://www.w3.org/1999/xlink">
<g><path style="opacity:1" fill="#339966" d="M -0.5,-0.5 C 137.833,-0.5 276.167,-0.5 414.5,-0.5C 414.5,138.167 414.5,276.833 414.5,415.5C 276.167,415.5 137.833,415.5 -0.5,415.5C -0.5,276.833 -0.5,138.167 -0.5,-0.5 Z"/></g>
<g><path style="opacity:1" fill="#e7f3ed" d="M 15.5,160.5 C 142.666,159.5 269.999,159.167 397.5,159.5C 397.832,192.671 397.498,225.671 396.5,258.5C 396.5,225.833 396.5,193.167 396.5,160.5C 269.5,160.5 142.5,160.5 15.5,160.5 Z"/></g>
<g><path style="opacity:1" fill="#fbfdfd" d="M 15.5,160.5 C 142.5,160.5 269.5,160.5 396.5,160.5C 396.5,193.167 396.5,225.833 396.5,258.5C 269.5,258.5 142.5,258.5 15.5,258.5C 15.5,225.833 15.5,193.167 15.5,160.5 Z"/></g>
<g><path style="opacity:1" fill="#4ea67a" d="M 20.5,165.5 C 144.332,164.5 268.332,164.167 392.5,164.5C 392.831,194.338 392.498,224.005 391.5,253.5C 391.5,224.167 391.5,194.833 391.5,165.5C 267.833,165.5 144.167,165.5 20.5,165.5 Z"/></g>
<g><path style="opacity:1" fill="#359967" d="M 20.5,165.5 C 144.167,165.5 267.833,165.5 391.5,165.5C 391.5,194.833 391.5,224.167 391.5,253.5C 267.833,253.5 144.167,253.5 20.5,253.5C 20.5,224.167 20.5,194.833 20.5,165.5 Z"/></g>
<g><path style="opacity:1" fill="#eff7f3" d="M 348.5,170.5 C 350.199,170.34 351.866,170.506 353.5,171C 357.167,174.667 360.833,178.333 364.5,182C 368.5,182.333 372.5,182.667 376.5,183C 377,183.5 377.5,184 378,184.5C 378.169,190.859 378.669,197.193 379.5,203.5C 381.576,205.288 383.743,206.954 386,208.5C 386.667,210.5 386.667,212.5 386,214.5C 382.333,218.167 378.667,221.833 375,225.5C 374.667,229.5 374.333,233.5 374,237.5C 373.5,238 373,238.5 372.5,239C 366.141,239.169 359.807,239.669 353.5,240.5C 351.605,245.778 347.938,247.944 342.5,247C 338.833,243.333 335.167,239.667 331.5,236C 329.166,235.661 326.832,235.828 324.5,236.5C 322.407,236.514 320.574,235.848 319,234.5C 317.909,227.914 317.075,221.247 316.5,214.5C 311.726,212.274 309.559,208.608 310,203.5C 314,199.5 318,195.5 322,191.5C 321.518,188.24 321.518,184.907 322,181.5C 322.308,180.692 322.808,180.025 323.5,179.5C 329.81,178.87 336.144,178.204 342.5,177.5C 344.523,175.147 346.523,172.814 348.5,170.5 Z"/></g>
<g><path style="opacity:1" fill="#3f9e6d" d="M 349.5,174.5 C 354.15,176.629 358.15,179.795 361.5,184C 354.484,188.677 349.317,194.844 346,202.5C 340.643,192.413 341.81,183.079 349.5,174.5 Z"/></g>
<g><path style="opacity:1" fill="#3c9d6c" d="M 325.5,182.5 C 330.511,182.334 335.511,182.501 340.5,183C 338.575,191.049 339.575,198.715 343.5,206C 335.786,204.976 330.286,200.809 327,193.5C 325.892,189.914 325.392,186.247 325.5,182.5 Z"/></g>
<g><path style="opacity:1" fill="#5bad83" d="M 184.5,184.5 C 184.206,196.883 184.54,209.217 185.5,221.5C 184.883,221.389 184.383,221.056 184,220.5C 183.174,208.326 183.34,196.326 184.5,184.5 Z"/></g>
<g><path style="opacity:1" fill="#e6f3ed" d="M 185.5,221.5 C 184.54,209.217 184.206,196.883 184.5,184.5C 185.542,183.209 186.708,183.209 188,184.5C 188.333,195.833 188.667,207.167 189,218.5C 190.699,219.406 192.533,219.739 194.5,219.5C 194.5,220.5 194.5,221.5 194.5,222.5C 191.391,222.736 188.391,222.403 185.5,221.5 Z"/></g>
<g><path style="opacity:1" fill="#e9f4ef" d="M 41.5,185.5 C 43.1439,185.286 44.6439,185.62 46,186.5C 51.2033,198.282 55.7033,210.282 59.5,222.5C 58.325,222.719 57.325,222.386 56.5,221.5C 55.1667,218.5 53.8333,215.5 52.5,212.5C 46.5276,211.336 40.5276,211.17 34.5,212C 32.7396,215.351 31.4063,218.851 30.5,222.5C 29.0222,222.762 27.6888,222.429 26.5,221.5C 31.8891,209.667 36.8891,197.667 41.5,185.5 Z"/></g>
<g><path style="opacity:1" fill="#f7fbf9" d="M 66.5,184.5 C 67.5,184.5 68.5,184.5 69.5,184.5C 69.5,197.167 69.5,209.833 69.5,222.5C 68.5,222.5 67.5,222.5 66.5,222.5C 66.5,209.833 66.5,197.167 66.5,184.5 Z"/></g>
<g><path style="opacity:1" fill="#9cceb5" d="M 117.5,185.5 C 109.5,185.5 101.5,185.5 93.5,185.5C 93.5,197.833 93.5,210.167 93.5,222.5C 101.833,222.5 110.167,222.5 118.5,222.5C 110.016,223.493 101.349,223.826 92.5,223.5C 92.5,210.5 92.5,197.5 92.5,184.5C 101.017,184.174 109.35,184.507 117.5,185.5 Z"/></g>
<g><path style="opacity:1" fill="#f4faf7" d="M 117.5,185.5 C 117.5,186.5 117.5,187.5 117.5,188.5C 110.5,188.5 103.5,188.5 96.5,188.5C 96.5,192.833 96.5,197.167 96.5,201.5C 102.735,201.853 108.735,202.853 114.5,204.5C 108.69,205.49 102.69,205.823 96.5,205.5C 96.5,210.167 96.5,214.833 96.5,219.5C 103.833,219.5 111.167,219.5 118.5,219.5C 118.5,220.5 118.5,221.5 118.5,222.5C 110.167,222.5 101.833,222.5 93.5,222.5C 93.5,210.167 93.5,197.833 93.5,185.5C 101.5,185.5 109.5,185.5 117.5,185.5 Z"/></g>
<g><path style="opacity:1" fill="#3a9c6a" d="M 374.5,186.5 C 375.103,191.619 374.436,196.285 372.5,200.5C 364.778,198.811 357.611,200.144 351,204.5C 353.798,192.162 361.631,186.162 374.5,186.5 Z"/></g>
<g><path style="opacity:1" fill="#98cbb2" d="M 374.5,186.5 C 375.487,191.305 375.821,196.305 375.5,201.5C 374.209,201.737 373.209,201.404 372.5,200.5C 374.436,196.285 375.103,191.619 374.5,186.5 Z"/></g>
<g><path style="opacity:1" fill="#409e6e" d="M 50.5,207.5 C 45.6367,207.819 40.97,207.486 36.5,206.5C 38.2934,200.915 40.6267,195.582 43.5,190.5C 46.4168,195.915 48.7501,201.581 50.5,207.5 Z"/></g>
<g><path style="opacity:1" fill="#eaf5f0" d="M 122.5,196.5 C 123.601,195.402 124.934,195.235 126.5,196C 129.123,199.412 131.623,202.912 134,206.5C 136.833,203 139.667,199.5 142.5,196C 143.635,195.251 144.635,195.417 145.5,196.5C 142.5,200.5 139.5,204.5 136.5,208.5C 139.253,213.008 142.253,217.341 145.5,221.5C 144.635,222.583 143.635,222.749 142.5,222C 139.967,218.472 137.134,215.306 134,212.5C 131.057,215.539 128.224,218.706 125.5,222C 124.365,222.749 123.365,222.583 122.5,221.5C 125.708,217.462 128.708,213.296 131.5,209C 128.651,204.663 125.651,200.496 122.5,196.5 Z"/></g>
<g><path style="opacity:1" fill="#fafdfc" d="M 153.5,195.5 C 153.5,197.167 153.5,198.833 153.5,200.5C 154.791,200.263 155.791,200.596 156.5,201.5C 155.596,202.209 155.263,203.209 155.5,204.5C 154.632,208.851 154.299,213.184 154.5,217.5C 154.5,222.833 154.5,228.167 154.5,233.5C 153.5,233.5 152.5,233.5 151.5,233.5C 150.853,220.456 151.52,207.789 153.5,195.5 Z"/></g>
<g><path style="opacity:1" fill="#e5f2ec" d="M 156.5,218.5 C 156.158,217.662 155.492,217.328 154.5,217.5C 154.299,213.184 154.632,208.851 155.5,204.5C 155.335,207.85 155.502,211.183 156,214.5C 158.897,219.155 163.063,220.655 168.5,219C 174.025,216.081 175.858,211.581 174,205.5C 171.315,198.943 166.481,196.777 159.5,199C 158.627,200.045 157.627,200.878 156.5,201.5C 155.791,200.596 154.791,200.263 153.5,200.5C 153.5,198.833 153.5,197.167 153.5,195.5C 154.161,196.718 154.828,198.051 155.5,199.5C 163.733,192.223 170.899,193.223 177,202.5C 179.66,211.408 177.16,218.242 169.5,223C 164.121,224.302 159.788,222.802 156.5,218.5 Z"/></g>
<g><path style="opacity:1" fill="#e7f3ed" d="M 206.5,194.5 C 222.171,195.187 227.338,202.854 222,217.5C 216.49,224.002 209.99,225.169 202.5,221C 193.805,210.702 195.138,201.869 206.5,194.5 Z"/></g>
<g><path style="opacity:1" fill="#f5fbf8" d="M 230.5,195.5 C 231.5,195.5 232.5,195.5 233.5,195.5C 233.215,197.288 233.548,198.955 234.5,200.5C 235.107,200.376 235.44,200.043 235.5,199.5C 237.584,196.294 240.584,194.961 244.5,195.5C 244.5,196.5 244.5,197.5 244.5,198.5C 239.495,198.512 236.162,200.845 234.5,205.5C 233.511,210.975 233.178,216.642 233.5,222.5C 232.5,222.5 231.5,222.5 230.5,222.5C 230.5,213.5 230.5,204.5 230.5,195.5 Z"/></g>
<g><path style="opacity:1" fill="#87c3a4" d="M 230.5,195.5 C 231.568,194.566 232.901,194.232 234.5,194.5C 234.216,196.415 234.549,198.081 235.5,199.5C 235.44,200.043 235.107,200.376 234.5,200.5C 233.548,198.955 233.215,197.288 233.5,195.5C 232.5,195.5 231.5,195.5 230.5,195.5 Z"/></g>
<g><path style="opacity:1" fill="#ecf6f1" d="M 272.5,204.5 C 272.5,206.167 272.5,207.833 272.5,209.5C 264.648,209.175 256.982,209.508 249.5,210.5C 253.537,221.701 260.037,223.368 269,215.5C 270.23,216.275 270.563,217.275 270,218.5C 263.054,224.96 256.054,224.96 249,218.5C 243.595,209.62 245.095,202.12 253.5,196C 262.572,192.871 268.905,195.705 272.5,204.5 Z"/></g>
<g><path style="opacity:1" fill="#e6f2ec" d="M 278.5,195.5 C 279.833,195.5 281.167,195.5 282.5,195.5C 282.34,197.199 282.506,198.866 283,200.5C 285.169,196.81 288.336,195.143 292.5,195.5C 292.5,196.5 292.5,197.5 292.5,198.5C 287.977,198.345 284.811,200.345 283,204.5C 282.501,210.491 282.334,216.491 282.5,222.5C 281.167,222.5 279.833,222.5 278.5,222.5C 278.5,213.5 278.5,204.5 278.5,195.5 Z"/></g>
<g><path style="opacity:1" fill="#3b9c6b" d="M 322.5,196.5 C 326.224,199.719 329.891,203.219 333.5,207C 336.417,208.528 339.417,209.861 342.5,211C 334.14,215.524 325.807,215.524 317.5,211C 315.981,209.649 314.648,208.149 313.5,206.5C 316.522,203.147 319.522,199.813 322.5,196.5 Z"/></g>
<g><path style="opacity:1" fill="#399b6a" d="M 256.5,197.5 C 264.181,196.81 268.515,200.144 269.5,207.5C 262.833,207.5 256.167,207.5 249.5,207.5C 250.276,203.06 252.61,199.727 256.5,197.5 Z"/></g>
<g><path style="opacity:1" fill="#399b69" d="M 155.5,204.5 C 155.263,203.209 155.596,202.209 156.5,201.5C 157.627,200.878 158.627,200.045 159.5,199C 166.481,196.777 171.315,198.943 174,205.5C 175.858,211.581 174.025,216.081 168.5,219C 163.063,220.655 158.897,219.155 156,214.5C 155.502,211.183 155.335,207.85 155.5,204.5 Z"/></g>
<g><path style="opacity:1" fill="#399b69" d="M 206.5,198.5 C 217.486,197.653 221.986,202.653 220,213.5C 217.081,219.025 212.581,220.858 206.5,219C 198.547,212.169 198.547,205.335 206.5,198.5 Z"/></g>
<g><path style="opacity:1" fill="#98ccb2" d="M 96.5,201.5 C 102.833,201.5 109.167,201.5 115.5,201.5C 115.737,202.791 115.404,203.791 114.5,204.5C 108.735,202.853 102.735,201.853 96.5,201.5 Z"/></g>
<g><path style="opacity:1" fill="#3e9d6d" d="M 361.5,203.5 C 369.287,203.151 376.12,205.484 382,210.5C 382.667,211.5 382.667,212.5 382,213.5C 379,216.5 376,219.5 373,222.5C 368.316,215.072 361.816,209.905 353.5,207C 356.158,205.522 358.825,204.355 361.5,203.5 Z"/></g>
<g><path style="opacity:1" fill="#93caae" d="M 234.5,205.5 C 234.5,211.5 234.5,217.5 234.5,223.5C 232.901,223.768 231.568,223.434 230.5,222.5C 231.5,222.5 232.5,222.5 233.5,222.5C 233.178,216.642 233.511,210.975 234.5,205.5 Z"/></g>
<g><path style="opacity:1" fill="#85c1a4" d="M 36.5,206.5 C 40.97,207.486 45.6367,207.819 50.5,207.5C 45.6523,208.814 40.6523,208.814 35.5,207.5C 35.6236,206.893 35.9569,206.56 36.5,206.5 Z"/></g>
<g><path style="opacity:1" fill="#c8e3d7" d="M 272.5,204.5 C 273.461,206.265 273.795,208.265 273.5,210.5C 265.5,210.5 257.5,210.5 249.5,210.5C 256.982,209.508 264.648,209.175 272.5,209.5C 272.5,207.833 272.5,206.167 272.5,204.5 Z"/></g>
<g><path style="opacity:1" fill="#3b9c6b" d="M 370.5,235.5 C 365.637,235.819 360.97,235.486 356.5,234.5C 357.607,229.919 357.773,225.252 357,220.5C 355.646,217.495 354.646,214.495 354,211.5C 365.882,215.486 371.382,223.486 370.5,235.5 Z"/></g>
<g><path style="opacity:1" fill="#389b69" d="M 343.5,214.5 C 344.239,214.369 344.906,214.536 345.5,215C 341.62,226.369 333.62,232.202 321.5,232.5C 321.5,227.5 321.5,222.5 321.5,217.5C 329.395,219.571 336.728,218.571 343.5,214.5 Z"/></g>
<g><path style="opacity:1" fill="#3f9e6d" d="M 349.5,214.5 C 354.951,223.132 354.785,231.799 349,240.5C 347.938,241.899 346.605,242.899 345,243.5C 341.213,240.716 337.713,237.549 334.5,234C 342.515,229.796 347.515,223.296 349.5,214.5 Z"/></g>
<g><path style="opacity:1" fill="#9bceb4" d="M 154.5,217.5 C 155.492,217.328 156.158,217.662 156.5,218.5C 155.512,223.64 155.179,228.974 155.5,234.5C 153.901,234.768 152.568,234.434 151.5,233.5C 152.5,233.5 153.5,233.5 154.5,233.5C 154.5,228.167 154.5,222.833 154.5,217.5 Z"/></g>
<g><path style="opacity:1" fill="#9cceb5" d="M 356.5,234.5 C 360.97,235.486 365.637,235.819 370.5,235.5C 365.652,236.814 360.652,236.814 355.5,235.5C 355.624,234.893 355.957,234.56 356.5,234.5 Z"/></g>
</svg>
